HIERARCHY
ROOT root
{
	OFFSET 0.000000 0.000000 0.000000
	CHANNELS 6 Xposition Yposition Zposition Zrotation Yrotation Xrotation
	JOINT lhip
	{
		OFFSET 0.058581 -0.082280 -0.017664
		CHANNELS 3 Zrotation Yrotation Xrotation
		JOINT lknee
		{
			OFFSET 0.043451 -0.386469 0.008037
			CHANNELS 3 Zrotation Yrotation Xrotation
			JOINT lankle
			{
				OFFSET -0.014790 -0.426874 -0.037428
				CHANNELS 3 Zrotation Yrotation Xrotation
				JOINT ltoe
				{
					OFFSET 0.041054 -0.060286 0.122042
					CHANNELS 3 Zrotation Yrotation Xrotation
					End Site
					{
						OFFSET 0.000000 0.000000 0.000000
					}
				}
			}
		}
	}
	JOINT rhip
	{
		OFFSET -0.060310 -0.090513 -0.013543
		CHANNELS 3 Zrotation Yrotation Xrotation
		JOINT rknee
		{
			OFFSET -0.043257 -0.383688 -0.004843
			CHANNELS 3 Zrotation Yrotation Xrotation
			JOINT rankle
			{
				OFFSET 0.019056 -0.420046 -0.034562
				CHANNELS 3 Zrotation Yrotation Xrotation
				JOINT rtoe
				{
					OFFSET -0.034840 -0.062106 0.130323
					CHANNELS 3 Zrotation Yrotation Xrotation
					End Site
					{
						OFFSET 0.000000 0.000000 0.000000
					}
				}
			}
		}
	}
	JOINT lowerback
	{
		OFFSET 0.004439 0.124404 -0.038385
		CHANNELS 3 Zrotation Yrotation Xrotation
		JOINT upperback
		{
			OFFSET 0.004488 0.137956 0.026820
			CHANNELS 3 Zrotation Yrotation Xrotation
			JOINT chest
			{
				OFFSET -0.002265 0.056032 0.002855
				CHANNELS 3 Zrotation Yrotation Xrotation
				JOINT lowerneck
				{
					OFFSET -0.013390 0.211636 -0.033468
					CHANNELS 3 Zrotation Yrotation Xrotation
					JOINT upperneck
					{
						OFFSET 0.010113 0.088937 0.050410
						CHANNELS 3 Zrotation Yrotation Xrotation
						End Site
						{
							OFFSET 0.000000 0.000000 0.000000
						}
					}
				}
				JOINT lclavicle
				{
					OFFSET 0.071702 0.114000 -0.018898
					CHANNELS 3 Zrotation Yrotation Xrotation
					JOINT lshoulder
					{
						OFFSET 0.122921 0.045205 -0.019046
						CHANNELS 3 Zrotation Yrotation Xrotation
						JOINT lelbow
						{
							OFFSET 0.255332 -0.015649 -0.022946
							CHANNELS 3 Zrotation Yrotation Xrotation
							JOINT lwrist
							{
								OFFSET 0.265709 0.012698 -0.007375
								CHANNELS 3 Zrotation Yrotation Xrotation
								End Site
								{
									OFFSET 0.000000 0.000000 0.000000
								}
							}
						}
					}
				}
				JOINT rclavicle
				{
					OFFSET -0.082954 0.112472 -0.023707
					CHANNELS 3 Zrotation Yrotation Xrotation
					JOINT rshoulder
					{
						OFFSET -0.113228 0.046853 -0.008472
						CHANNELS 3 Zrotation Yrotation Xrotation
						JOINT relbow
						{
							OFFSET -0.260127 -0.014369 -0.031269
							CHANNELS 3 Zrotation Yrotation Xrotation
							JOINT rwrist
							{
								OFFSET -0.269108 0.006794 -0.006027
								CHANNELS 3 Zrotation Yrotation Xrotation
								End Site
								{
									OFFSET 0.000000 0.000000 0.000000
								}
							}
						}
					}
				}
			}
		}
	}
}
MOTION
Frames: 7
Frame Time: 0.033333
0.366385 0.655939 0.952171 -41.855764 -2.043898 88.090328 6.742722 1.903312 -16.609126 -8.140207 1.483056 21.122125 3.402342 9.195889 -18.753738 0.000000 -0.000000 0.000000 -14.453206 -6.999367 -5.791106 -1.313214 0.101742 38.721399 4.178758 -9.905915 -22.000473 0.000000 -0.000000 0.000000 -2.839441 -2.474802 13.881111 -1.073384 -11.144039 -3.737056 -1.232739 -4.146188 0.556698 -2.923793 14.102001 0.198924 4.571033 20.460139 15.177959 -27.702317 -14.008673 6.303878 -34.298486 -19.898727 2.254311 49.029986 -61.017881 -72.883692 31.246671 9.965412 -57.816712 24.814695 11.735433 4.295596 54.034858 10.939699 27.152359 -117.245913 80.291419 -104.683020 -35.203210 19.500657 1.958089 
0.361567 0.666543 0.950061 -39.194034 -1.832769 88.590308 7.347487 1.080281 -18.390529 -8.388090 0.468198 21.935383 2.688183 8.731854 -18.497266 0.000000 -0.000000 0.000000 -13.814842 -6.883543 -4.876860 -1.103570 -0.427085 38.088145 4.752852 -9.176806 -23.209501 0.000000 -0.000000 0.000000 -3.156234 -1.767895 13.856721 -0.463393 -11.986689 -3.509491 -1.057045 -4.249464 0.049950 -2.379527 15.029374 -0.430679 4.793350 18.676595 14.988747 -26.712581 -16.447611 6.036822 -30.606361 -20.468829 0.250205 44.362545 -56.380953 -71.675373 31.461827 10.268768 -57.999221 25.116093 13.943162 4.181788 55.962842 12.522050 29.169517 -106.302938 81.884172 -92.447394 -36.839202 18.916004 4.124880 
0.354968 0.678949 0.948517 -37.363161 -1.185037 88.344518 8.477871 1.336000 -19.397965 -8.711774 -0.728163 23.114902 1.289320 7.954320 -18.378660 0.000000 -0.000000 0.000000 -12.330953 -6.859127 -3.585428 -1.267715 -1.583971 37.163529 4.827713 -9.125810 -24.409826 0.000000 -0.000000 0.000000 -3.634386 -0.664006 14.719947 0.353383 -11.903090 -2.843586 -0.497273 -4.256434 -0.665261 -1.922412 15.642306 -1.468772 4.947359 16.562999 14.700747 -26.102500 -19.341722 5.903711 -26.386371 -20.981997 -2.296040 40.684564 -51.464289 -71.673359 32.534625 10.355484 -57.101510 25.609403 16.733508 3.891221 57.564779 14.415005 30.572403 -89.589493 82.443375 -75.383386 -39.329161 18.451685 5.357031 
0.348633 0.689528 0.945584 -35.652909 -0.768274 88.275840 9.429547 1.656644 -20.728752 -8.895984 -1.049068 24.577000 0.594163 7.131588 -18.180908 0.000000 -0.000000 0.000000 -11.674594 -7.623541 -2.785474 -1.259056 -3.999475 36.711336 4.828506 -8.982210 -25.927550 0.000000 -0.000000 0.000000 -3.859689 0.200533 15.301414 0.754887 -11.979731 -2.606738 -0.165940 -3.835709 -1.212556 -1.332931 16.549123 -2.158335 5.214723 14.534862 14.558295 -25.004653 -21.809958 5.542580 -22.742051 -21.042910 -4.821319 37.853990 -47.113784 -72.672786 33.974125 10.174743 -55.514776 25.712009 19.589210 3.820523 59.939255 16.819654 31.512482 -70.002195 81.088939 -56.312866 -42.210307 17.486653 6.375650 
0.342730 0.698505 0.941391 -33.810693 -0.268363 88.489003 10.408486 2.313727 -22.444824 -9.624179 -1.699362 26.190704 0.197741 6.239091 -18.289218 0.000000 -0.000000 0.000000 -10.974260 -8.859396 -2.516236 -0.896137 -5.819747 36.740351 4.261163 -9.508540 -27.374742 0.000000 -0.000000 0.000000 -3.852209 1.092165 15.519640 1.339299 -12.080828 -2.613690 0.093122 -3.611325 -1.668871 -0.756789 17.139225 -2.592491 5.196580 12.950733 14.328886 -24.034917 -23.716934 5.299360 -18.999405 -20.377904 -7.037423 34.679974 -44.148611 -70.427997 32.511092 10.298129 -56.028413 25.613703 22.188342 3.948692 61.809126 19.958516 31.973358 -54.757756 78.430018 -40.802617 -44.262149 16.514478 5.769667 
0.337473 0.705641 0.936003 -31.965519 0.152224 88.845519 11.296505 2.987171 -24.446397 -10.561230 -2.061241 28.123231 -0.097187 5.173328 -18.600557 0.000000 -0.000000 0.000000 -10.243457 -9.513508 -2.651698 -0.624405 -7.117607 37.385241 3.777644 -10.156132 -28.682180 0.000000 -0.000000 0.000000 -3.905054 1.663181 15.226635 1.885473 -11.915552 -2.811745 0.244969 -3.208125 -1.531823 -0.117236 17.471213 -3.349409 5.051242 11.295723 14.743039 -23.079119 -25.088347 4.627071 -15.837517 -20.198713 -8.696507 32.351180 -41.559937 -69.368120 33.303007 10.199549 -54.598913 25.648832 24.407855 3.608857 62.905642 23.361266 32.528510 -43.489111 74.775631 -30.305010 -46.289700 15.679071 5.972454 
0.331576 0.708626 0.931096 -30.185951 0.472915 88.446815 11.853493 3.740824 -25.532286 -11.371697 -2.245945 30.419251 -0.513622 4.031344 -19.352241 0.000000 -0.000000 0.000000 -9.494456 -9.702103 -1.761691 -0.796341 -7.997866 37.898762 3.595945 -10.818206 -29.777985 0.000000 -0.000000 0.000000 -4.097615 2.414155 15.667717 2.445406 -11.371772 -3.453121 0.600504 -2.884219 -1.414292 0.648735 17.309397 -3.625629 4.844740 9.534604 15.529991 -22.262487 -25.778004 3.790712 -14.088192 -20.581420 -9.814619 30.439850 -40.078613 -68.081693 34.137703 9.193378 -51.639513 25.839255 25.976111 3.179147 63.217495 26.330893 32.548254 -34.799942 70.602419 -23.063948 -47.536981 15.042053 6.013492 
